<?xml version="1.0" encoding="UTF-8" standalone="no"?>
<!DOCTYPE svg PUBLIC "-//W3C//DTD SVG 1.1//EN" "http://www.w3.org/Graphics/SVG/1.1/DTD/svg11.dtd">
<svg width="100%" height="100%" viewBox="0 0 1000 1000" version="1.1" xmlns="http://www.w3.org/2000/svg" xmlns:xlink="http://www.w3.org/1999/xlink" xml:space="preserve" xmlns:serif="http://www.serif.com/" style="fill-rule:evenodd;clip-rule:evenodd;stroke-linejoin:round;stroke-miterlimit:2;">
    <path id="Typescript" d="M174.261,175.514L829.691,175.514L829.691,830.944L174.261,830.944L174.261,175.514ZM782.523,553.763L782.523,490.978C782.523,490.978 667.594,451.072 603.213,517.05C603.213,517.05 550.537,593.137 627.156,641.556C627.156,641.556 635.137,650.602 665.998,661.775C665.998,661.775 704.84,680.398 712.289,686.251C712.289,686.251 754.323,741.055 665.466,740.523C665.466,740.523 616.515,740.523 587.25,709.663L587.25,778.301C587.25,778.301 647.907,809.161 726.123,788.942C726.123,788.942 808.063,774.576 794.761,682.526C794.761,682.526 784.119,650.07 758.048,631.447C758.048,631.447 721.866,612.292 686.749,596.33C686.749,596.33 635.669,577.175 670.787,543.122C670.787,543.122 712.842,517.582 782.523,553.763ZM316.954,486.189L316.422,540.994L403.151,540.994L403.151,790.539L473.385,790.539L473.385,542.058L560.646,542.058L560.646,486.189L316.954,486.189Z" style="fill:rgb(49,120,198);"/>
</svg>
