<?xml version="1.0" encoding="UTF-8" standalone="no"?>
<!DOCTYPE svg PUBLIC "-//W3C//DTD SVG 1.1//EN" "http://www.w3.org/Graphics/SVG/1.1/DTD/svg11.dtd">
<svg width="100%" height="100%" viewBox="0 0 1000 1000" version="1.1" xmlns="http://www.w3.org/2000/svg" xmlns:xlink="http://www.w3.org/1999/xlink" xml:space="preserve" xmlns:serif="http://www.serif.com/" style="fill-rule:evenodd;clip-rule:evenodd;stroke-linejoin:round;stroke-miterlimit:2;">
    <path id="_.Net" serif:id=".Net" d="M823.741,170.662L141.174,170.662L141.174,858.122L826.187,858.122L823.741,170.662ZM261.877,574.37C272.097,574.37 280.395,582.668 280.395,592.888C280.395,603.109 272.097,611.407 261.877,611.407C251.656,611.407 243.359,603.109 243.359,592.888C243.359,582.668 251.656,574.37 261.877,574.37ZM602.418,427.771L602.418,453.424L652.121,453.424L652.121,606.943L681.782,606.943L681.782,454.226L731.084,454.226L731.084,428.172L602.418,427.771ZM309.095,606.436L336.993,606.436L336.993,465.665L425.496,606.116L456.921,606.116L456.921,428.468L429.344,428.147L429.344,566.674L343.085,428.468L309.095,428.468L309.095,606.436ZM588.789,428.172L588.789,453.024L523.454,453.024L523.454,503.127L583.178,503.127L583.178,528.38L523.454,528.38L523.454,580.889L592.397,580.889L592.397,606.141L494.995,606.141L494.995,428.172L588.789,428.172Z" style="fill:rgb(81,43,212);"/>
</svg>
