<?xml version="1.0" encoding="UTF-8" standalone="no"?>
<!DOCTYPE svg PUBLIC "-//W3C//DTD SVG 1.1//EN" "http://www.w3.org/Graphics/SVG/1.1/DTD/svg11.dtd">
<svg width="100%" height="100%" viewBox="0 0 1000 1000" version="1.1" xmlns="http://www.w3.org/2000/svg" xmlns:xlink="http://www.w3.org/1999/xlink" xml:space="preserve" xmlns:serif="http://www.serif.com/" style="fill-rule:evenodd;clip-rule:evenodd;stroke-linejoin:round;stroke-miterlimit:2;">
    <path id="JavaScript" d="M826.428,175.207L139.787,175.207L139.787,860.288L826.428,860.288L826.428,175.207ZM449.49,491.597L513.16,491.597L513.16,735.042C513.16,735.042 511.911,816.19 405.794,809.948C405.794,809.948 338.379,806.203 323.397,750.023L372.086,720.061C372.086,720.061 391.282,768.31 432.191,750.413C432.191,750.413 451.367,744.66 448.81,702.473L449.49,491.597ZM703.733,570.558L753.671,538.598C753.671,538.598 708.727,453.704 603.858,505.639C603.858,505.639 538.94,550.583 581.886,623.492C581.886,623.492 593.104,645.721 622.428,660.173L644.839,670.437C644.839,670.437 684.217,687.193 685.473,688.45C686.73,689.706 739.203,720.122 686.939,750.238C686.939,750.238 626.685,766.772 601.117,714.837L550.78,742.003C550.78,742.003 560.368,777.958 599.519,793.938C599.519,793.938 640.268,825.898 717.771,800.33C717.771,800.33 799.269,779.556 763.314,675.686C763.314,675.686 752.128,648.52 714.575,632.54L668.233,610.168C668.233,610.168 640.805,603.399 633.033,582.944C625.26,562.49 642.033,539.99 672.714,545.308C672.714,545.308 689.344,547.126 703.733,570.558Z" style="fill:rgb(240,219,79);"/>
</svg>
