<?xml version="1.0" encoding="UTF-8" standalone="no"?>
<!DOCTYPE svg PUBLIC "-//W3C//DTD SVG 1.1//EN" "http://www.w3.org/Graphics/SVG/1.1/DTD/svg11.dtd">
<svg width="100%" height="100%" viewBox="0 0 1000 1000" version="1.1" xmlns="http://www.w3.org/2000/svg" xmlns:xlink="http://www.w3.org/1999/xlink" xml:space="preserve" xmlns:serif="http://www.serif.com/" style="fill-rule:evenodd;clip-rule:evenodd;stroke-linejoin:round;stroke-miterlimit:2;">
    <g id="springboot" transform="matrix(1,0,0,1,1.61947,3.1393)">
        <path d="M744.78,178.337L706.428,255.041C706.428,255.041 600.286,174.517 469.2,180.135C469.2,180.135 248.226,198.861 188.301,431.071C188.301,431.071 132.121,653.533 347.477,773.767C347.477,773.767 579.687,920.219 768.825,663.664C768.825,663.664 887.402,518.964 744.78,178.337ZM350.539,689.648C365.356,689.648 377.386,701.677 377.386,716.494C377.386,731.311 365.356,743.341 350.539,743.341C335.722,743.341 323.693,731.311 323.693,716.494C323.693,701.677 335.722,689.648 350.539,689.648ZM344.941,668.4C344.941,668.4 642.974,643.228 715.843,423.101C715.843,423.101 692.666,570.289 528.367,657.526C472.646,679.83 447.819,685.949 387.933,706.345L524.523,706.556C524.523,706.556 558.897,706.63 590.269,705.553C658.551,703.209 758.477,681.655 782.288,544.979C782.288,544.979 808.175,470.073 742.258,260.874C742.258,260.874 665.853,418.717 462.108,402.238C462.108,402.238 384.115,408.38 335.377,462.79C287.142,516.638 266.942,619.305 344.941,668.4Z" style="fill:rgb(139,195,74);"/>
    </g>
</svg>
